PathFileType	4	(x/y/z)	S05_P20_T07
DataRate	CameraRate	NumFrames	NumMarkers	Units	OrigDataRate	OrigDataStartFrame	OrigNumFrames
240	240	4	50	mm	240	283	376
Frame#	Time	Sternum			R.Acromium			L.Acromium			Top.Head			R.ASIS			L.ASIS			R.PSIS			L.PSIS			R.Great.Tro			L.Great.Tro			R.Iliac.Crest			L.Iliac.Crest			V.Sacral			R.Thigh.Upper.Post			R.Thigh.Lower.Ant			R.Thigh.Lower.Post			R.Thigh.Upper.Ant			R.Knee.Lat			R.Knee.Med			R.Shank.Upper.Post			R.Shank.Lower.Ant			R.Shank.Lower.Post			R.Shank.Upper.Ant			R.Ankle.Lat			R.Ankle.Med			R.Heel.Upper			R.Heel.Med			R.Heel.Lat			R.Toe.Lat			R.Toe.Med			R.Toe.Tip			L.Thigh.Upper.Post			L.Thigh.Lower.Ant			L.Thigh.Lower.Post			L.Thigh.Upper.Ant			L.Knee.Lat			L.Shank.Upper.Post			L.Shank.Lower.Ant			L.Shank.Lower.Post			L.Shank.Upper.Ant			L.Ankle.Lat			L.Ankle.Med			L.Heel.Upper			L.Heel.Med			L.Heel.Lat			L.Toe.Lat			L.Toe.Med			L.Toe.Tip			Cervical.Spine			Back			
		X1	Y1	Z1	X2	Y2	Z2	X3	Y3	Z3	X4	Y4	Z4	X5	Y5	Z5	X6	Y6	Z6	X7	Y7	Z7	X8	Y8	Z8	X9	Y9	Z9	X10	Y10	Z10	X11	Y11	Z11	X12	Y12	Z12	X13	Y13	Z13	X14	Y14	Z14	X15	Y15	Z15	X16	Y16	Z16	X17	Y17	Z17	X18	Y18	Z18	X19	Y19	Z19	X20	Y20	Z20	X21	Y21	Z21	X22	Y22	Z22	X23	Y23	Z23	X24	Y24	Z24	X25	Y25	Z25	X26	Y26	Z26	X27	Y27	Z27	X28	Y28	Z28	X29	Y29	Z29	X30	Y30	Z30	X31	Y31	Z31	X32	Y32	Z32	X33	Y33	Z33	X34	Y34	Z34	X35	Y35	Z35	X36	Y36	Z36	X37	Y37	Z37	X38	Y38	Z38	X39	Y39	Z39	X40	Y40	Z40	X41	Y41	Z41	X42	Y42	Z42	X43	Y43	Z43	X44	Y44	Z44	X45	Y45	Z45	X46	Y46	Z46	X47	Y47	Z47	X48	Y48	Z48	X49	Y49	Z49	X50	Y50	Z50	

283	1.175	209.08	1263.7	341.63	129.32	1533.5	489.52	122.83	1538	158.92	111.49	1828.7	292.65	123.67	1017.4	468.9	141.04	1022.3	220.36	-71.605	1032.3	372.76	-64.682	1036.7	281.35	46.258	935.76	530.63	59.533	940.46	141.8	34.609	1100	502.79	53.11	1097.1	169.59	-81.123	999.12	338.53	166.76	733.62	541.36	239.04	678.9	493.55	182.54	645.21	525.45	218.77	765.42	508.61	190.3	547.87	511.39	210.07	532.11	381.55	10.913	380.35	480.96	30.856	291.67	481.25	-25.83	315.57	460.78	69.32	356.89	499.83	-35.823	209.83	456.38	-4.8107	231.32	372.5	-116.42	196.72	387.65	-115.52	165.58	356.35	-125.32	163.95	420.96	10.317	81.25	486.54	62.401	88.449	375.59	119.72	85.044	429.31	84.346	701.13	156.76	169.18	635.33	183.42	102.07	608.92	176.27	159.49	723.98	163.35	124.64	520.35	185.5	54.358	321.03	187.63	119.17	261.06	196.84	49.206	250.02	207.35	119.93	330.89	182.28	72.026	112.65	219.41	106.01	129.94	306.28	11.135	67.954	273.81	24.003	42.671	305.41	14.174	40.329	245.14	194.15	39.191	183.75	222.48	50.676	301.92	283.35	61.285	245.1	71.413	1573.8	328.4	-54.013	1303.5	332.67
284	1.1792	214.27	1264.5	341.86	134.32	1534.1	489.68	128.39	1538.9	159.14	117.06	1829.4	293.23	128.57	1018.2	468.92	146.12	1022.6	220.42	-66.559	1033	372.75	-59.593	1037.4	281.35	51.429	936.74	530.84	64.248	940.93	141.97	39.549	1100.9	502.78	58.479	1097.6	169.63	-76.068	999.84	338.54	173.39	735.35	541.37	245.95	681.13	493.36	189.73	647.05	525.36	225.1	767.52	508.49	197.89	549.54	511.15	217.83	534.09	381.4	21.953	377.8	480.33	43.884	289.66	481.43	-13.106	312.07	460.35	80.703	355.86	499.82	-20.58	206.13	456.64	10.601	227.73	372.84	-100.27	190.4	387.31	-98.327	159.03	356.33	-108.59	157.73	420.88	28.599	79.269	488.43	81.392	86.643	377.79	138.32	85.133	431.93	87.406	701.52	156.85	171.77	635.15	183.53	104.5	609.17	176.33	162.68	723.87	163.51	126.34	520.32	185.62	55.313	321.22	187.69	119.94	261.03	196.95	49.947	250.23	207.44	120.91	330.87	182.36	72.254	112.79	219.5	106.23	129.98	306.41	11.216	68.078	273.88	24.072	42.742	305.45	14.225	40.477	245.18	194.21	39.212	183.77	222.57	50.508	301.96	283.45	61.055	245.13	76.674	1574.4	328.48	-48.73	1304.1	332.36
285	1.1833	219.48	1265.2	342.11	139.31	1534.7	489.85	133.94	1539.7	159.38	122.63	1830.1	293.83	133.49	1019	468.96	151.21	1023	220.49	-61.501	1033.7	372.74	-54.494	1038.1	281.34	56.606	937.67	531.05	68.977	941.37	142.14	44.498	1101.7	502.78	63.856	1098.1	169.67	-70.999	1000.5	338.54	179.91	737	541.37	252.73	683.24	493.2	196.75	648.8	525.26	231.34	769.51	508.41	205.26	551.14	510.9	225.41	535.98	381.26	32.987	375.14	479.67	56.933	287.6	481.63	-0.32203	308.47	459.91	92.035	354.76	499.82	-5.2027	202.39	456.94	26.164	224.09	373.24	-83.871	184.01	386.99	-80.842	152.44	356.36	-91.613	151.45	420.82	47	77.331	490.38	100.55	84.947	380.09	157	85.348	434.66	90.461	701.91	156.94	174.36	634.96	183.64	106.92	609.43	176.38	165.85	723.76	163.66	128.01	520.3	185.75	56.255	321.41	187.76	120.69	261.01	197.06	50.676	250.44	207.53	121.88	330.84	182.44	72.483	112.92	219.6	106.45	130.02	306.55	11.316	68.199	273.95	24.174	42.813	305.49	14.281	40.626	245.22	194.26	39.235	183.79	222.65	50.336	301.99	283.56	60.825	245.17	81.934	1575	328.58	-43.441	1304.8	332.06
286	1.1875	224.69	1265.9	342.37	144.29	1535.3	490.03	139.48	1540.5	159.63	128.19	1830.7	294.44	138.44	1019.8	469.02	156.32	1023.2	220.56	-56.429	1034.3	372.73	-49.385	1038.8	281.34	61.794	938.56	531.26	73.72	941.79	142.32	49.459	1102.5	502.79	69.236	1098.6	169.71	-65.917	1001.2	338.54	186.3	738.55	541.38	259.37	685.23	493.06	203.6	650.45	525.16	237.5	771.37	508.35	212.41	552.64	510.64	232.81	537.77	381.11	44.019	372.38	478.99	70.003	285.5	481.87	12.523	304.8	459.46	103.32	353.61	499.84	10.307	198.62	457.29	41.87	220.43	373.68	-67.225	177.56	386.72	-63.077	145.85	356.44	-74.387	145.14	420.81	65.518	75.459	492.37	119.86	83.39	382.46	175.76	85.714	437.47	93.515	702.29	157.03	176.93	634.77	183.76	109.33	609.68	176.44	169.02	723.64	163.83	129.65	520.28	185.87	57.184	321.59	187.84	121.43	260.99	197.18	51.393	250.65	207.63	122.85	330.81	182.54	72.713	113.05	219.69	106.68	130.06	306.7	11.433	68.317	274.03	24.306	42.884	305.54	14.341	40.777	245.27	194.31	39.259	183.81	222.73	50.161	302.02	283.66	60.595	245.21	87.194	1575.5	328.69	-38.148	1305.3	331.76
